<?xml version="1.0" encoding="UTF-8"?>
<!DOCTYPE svg PUBLIC "-//W3C//DTD SVG 1.1//EN" "http://www.w3.org/Graphics/SVG/1.1/DTD/svg11.dtd">
<!-- Creator: CorelDRAW 2021 (64 Bit) -->
<svg xmlns="http://www.w3.org/2000/svg" xml:space="preserve" width="169.333mm" height="169.376mm" version="1.1" style="shape-rendering:geometricPrecision; text-rendering:geometricPrecision; image-rendering:optimizeQuality; fill-rule:evenodd; clip-rule:evenodd"
viewBox="0 0 7960.31 7962.29"
 xmlns:xlink="http://www.w3.org/1999/xlink"
 xmlns:xodm="http://www.corel.com/coreldraw/odm/2003">
 <defs>
  <style type="text/css">
   <![CDATA[
    .fil0 {fill:#001D34}
    .fil1 {fill:#31A8FF}
   ]]>
  </style>
 </defs>
 <g id="Camada_x0020_1">
  <metadata id="CorelCorpID_0Corel-Layer"/>
  <g id="_2043211074880">
   <rect class="fil0" x="-0" y="0" width="7960.31" height="7962.29" rx="1473.39" ry="1381.4"/>
   <g>
    <path class="fil1" d="M2179.79 2730.99c555.2,-0.18 1130.83,-24.45 1131.72,611.02 0.81,639.33 -588.62,629.98 -1148.48,635.57l16.76 -1246.59zm-788.92 -698.95l-3.85 3855c224.95,20.15 600.27,52.21 762.76,-23.81l14.25 -1198.32c788.38,37.1 1633.5,-76.39 1869.92,-896.61 72.24,-250.33 78.87,-535 18.37,-793.3 -250.13,-1068.53 -1551.59,-1034.27 -2661.44,-942.96z"/>
    <path class="fil1" d="M4499.87 5062.87l-20.61 722.04c355.7,236.31 1155.47,231.73 1535.28,79.5 393.97,-157.91 722.51,-687.87 470.5,-1186.14 -222.44,-439.93 -672.86,-452.29 -1120.61,-716.81 -315.37,-186.21 -69.54,-406.77 301.21,-387.26 253.35,13.28 600,166.33 750.65,158.18 0,-672.85 73.67,-683.47 -201.46,-752.99 -1638.61,-414 -2285.49,1029.69 -1222.15,1631.93 168.84,95.62 559.5,223.21 678.25,317.92 390.03,311.05 -223.15,591.15 -1171.06,133.63z"/>
   </g>
  </g>
 </g>
</svg>
