<?xml version="1.0" encoding="UTF-8"?>
<!DOCTYPE svg PUBLIC "-//W3C//DTD SVG 1.1//EN" "http://www.w3.org/Graphics/SVG/1.1/DTD/svg11.dtd">
<!-- Creator: CorelDRAW 2021 (64 Bit) -->
<svg xmlns="http://www.w3.org/2000/svg" xml:space="preserve" width="328.724mm" height="321.72mm" version="1.1" style="shape-rendering:geometricPrecision; text-rendering:geometricPrecision; image-rendering:optimizeQuality; fill-rule:evenodd; clip-rule:evenodd"
viewBox="0 0 10657.86 10430.78"
 xmlns:xlink="http://www.w3.org/1999/xlink"
 xmlns:xodm="http://www.corel.com/coreldraw/odm/2003">
 <defs>
  <style type="text/css">
   <![CDATA[
    .fil0 {fill:#001D34}
    .fil1 {fill:#31A8FF}
   ]]>
  </style>
 </defs>
 <g id="Camada_x0020_1">
  <metadata id="CorelCorpID_0Corel-Layer"/>
  <rect class="fil0" x="-0" width="10657.86" height="10430.78" rx="1972.69" ry="1809.67"/>
  <g id="_2006547070096">
   <path class="fil1" d="M2918.46 3577.65c743.34,-0.24 1514.03,-32.04 1515.23,800.45 1.08,837.53 -788.09,825.29 -1537.67,832.61l22.44 -1633.06zm-1056.27 -915.64l-5.16 5050.14c301.17,26.4 803.69,68.39 1021.23,-31.2l19.08 -1569.83c1055.55,48.6 2187.06,-100.07 2503.59,-1174.58 96.71,-327.93 105.59,-700.86 24.6,-1039.23 -334.89,-1399.8 -2077.39,-1354.92 -3563.34,-1235.29z"/>
   <path class="fil1" d="M6024.76 6632.48l-27.6 945.88c476.24,309.57 1547.03,303.58 2055.55,104.15 527.48,-206.86 967.36,-901.13 629.95,-1553.87 -297.81,-576.31 -900.89,-592.51 -1500.35,-939.04 -422.24,-243.94 -93.11,-532.87 403.29,-507.32 339.21,17.4 803.33,217.9 1005.03,207.22 0,-881.44 98.63,-895.36 -269.74,-986.44 -2193.89,-542.35 -3059.98,1348.93 -1636.3,2137.86 226.06,125.27 749.1,292.42 908.08,416.49 522.2,407.49 -298.77,774.41 -1567.91,175.07z"/>
  </g>
 </g>
</svg>
